<svg width="213" height="223" viewBox="0 0 213 223" fill="none" xmlns="http://www.w3.org/2000/svg">
<circle cx="6.5" cy="6.5" r="6.5" fill="#C4C4C4" fill-opacity="0.4"/>
<circle cx="6.5" cy="41.5" r="6.5" fill="#C4C4C4" fill-opacity="0.4"/>
<circle cx="46.5" cy="6.5" r="6.5" fill="#C4C4C4" fill-opacity="0.4"/>
<circle cx="46.5" cy="41.5" r="6.5" fill="#C4C4C4" fill-opacity="0.4"/>
<circle cx="86.5" cy="6.5" r="6.5" fill="#C4C4C4" fill-opacity="0.4"/>
<circle cx="86.5" cy="41.5" r="6.5" fill="#C4C4C4" fill-opacity="0.4"/>
<circle cx="126.5" cy="6.5" r="6.5" fill="#C4C4C4" fill-opacity="0.4"/>
<circle cx="126.5" cy="41.5" r="6.5" fill="#C4C4C4" fill-opacity="0.4"/>
<circle cx="126.5" cy="76.5" r="6.5" fill="#C4C4C4" fill-opacity="0.4"/>
<circle cx="126.5" cy="111.5" r="6.5" fill="#C4C4C4" fill-opacity="0.4"/>
<circle cx="126.5" cy="146.5" r="6.5" fill="#C4C4C4" fill-opacity="0.4"/>
<circle cx="166.5" cy="6.5" r="6.5" fill="#C4C4C4" fill-opacity="0.4"/>
<circle cx="206.5" cy="6.5" r="6.5" fill="#C4C4C4" fill-opacity="0.4"/>
<circle cx="166.5" cy="41.5" r="6.5" fill="#C4C4C4" fill-opacity="0.4"/>
<circle cx="206.5" cy="41.5" r="6.5" fill="#C4C4C4" fill-opacity="0.4"/>
<circle cx="166.5" cy="76.5" r="6.5" fill="#C4C4C4" fill-opacity="0.4"/>
<circle cx="206.5" cy="76.5" r="6.5" fill="#C4C4C4" fill-opacity="0.4"/>
<circle cx="166.5" cy="111.5" r="6.5" fill="#C4C4C4" fill-opacity="0.4"/>
<circle cx="206.5" cy="111.5" r="6.5" fill="#C4C4C4" fill-opacity="0.4"/>
<circle cx="166.5" cy="146.5" r="6.5" fill="#C4C4C4" fill-opacity="0.4"/>
<circle cx="206.5" cy="146.5" r="6.5" fill="#C4C4C4" fill-opacity="0.4"/>
<circle cx="126.5" cy="216.5" r="6.5" transform="rotate(-90 126.5 216.5)" fill="#C4C4C4" fill-opacity="0.4"/>
<circle cx="166.5" cy="216.5" r="6.5" transform="rotate(-90 166.5 216.5)" fill="#C4C4C4" fill-opacity="0.4"/>
<circle cx="206.5" cy="216.5" r="6.5" transform="rotate(-90 206.5 216.5)" fill="#C4C4C4" fill-opacity="0.4"/>
<circle cx="126.5" cy="181.5" r="6.5" transform="rotate(-90 126.5 181.5)" fill="#C4C4C4" fill-opacity="0.4"/>
<circle cx="166.5" cy="181.5" r="6.5" transform="rotate(-90 166.5 181.5)" fill="#C4C4C4" fill-opacity="0.4"/>
<circle cx="206.5" cy="181.5" r="6.5" transform="rotate(-90 206.5 181.5)" fill="#C4C4C4" fill-opacity="0.4"/>
</svg>
