<svg width="815" height="649" viewBox="0 0 815 649" fill="none" xmlns="http://www.w3.org/2000/svg">
<circle cx="678" cy="572" r="10" fill="#FF9CBA"/>
<circle cx="303.5" cy="597.5" r="50" stroke="#FF5C8D"/>
<circle cx="183" cy="248" r="10" fill="#FF9CBA"/>
<circle cx="70" cy="447" r="10" fill="#FF9CBA"/>
<circle cx="568" cy="145" r="9.5" stroke="#FF5C8D"/>
<path d="M743.132 386.718C742.767 470.432 704.316 648.159 490.817 647.229C373.797 331.479 -21.4495 518.553 -20.5414 310.14C-19.6334 101.728 225.58 60.0675 439.079 60.9977C652.579 61.9279 744.04 178.306 743.132 386.718Z" fill="#FF5C8D" fill-opacity="0.14"/>
<path d="M145 199.658C155.566 168.125 179.461 121.419 221.533 89.6546C263.187 58.2056 322.915 41.1972 405.94 68.5441C413.485 204.341 507.826 262.698 592.768 306.545C600.372 310.47 607.891 314.275 615.261 318.004C649.414 335.288 680.391 350.963 701.999 369.576C715.066 380.832 724.512 393.015 729.134 407.076C733.744 421.103 733.64 437.265 727.141 456.659C714.046 495.738 691.632 522.928 662.806 540.946C633.933 558.993 598.478 567.929 559.218 570.197C480.646 574.736 387.437 552.538 302.907 524.213C218.688 495.993 166.244 454.024 141.277 399.825C116.292 345.59 118.563 278.555 145 199.658Z" stroke="#FF5C8D" stroke-width="5"/>
</svg>
