<svg width="816" height="651" viewBox="0 0 816 651" fill="none" xmlns="http://www.w3.org/2000/svg" xmlns:xlink="http://www.w3.org/1999/xlink">
<circle cx="678" cy="573" r="10" fill="#FF9CBA"/>
<circle cx="303.5" cy="598.5" r="50" stroke="#FF5C8D"/>
<circle cx="183" cy="249" r="10" fill="#FF9CBA"/>
<circle cx="70" cy="448" r="10" fill="#FF9CBA"/>
<circle cx="568" cy="146" r="9.5" stroke="#FF5C8D"/>
<path d="M743.132 387.718C742.767 471.432 704.316 649.159 490.817 648.229C373.797 332.479 -21.4495 519.553 -20.5414 311.14C-19.6334 102.728 225.58 61.0675 439.079 61.9977C652.579 62.9279 744.04 179.306 743.132 387.718Z" fill="#FF5C8D" fill-opacity="0.14"/>
<path d="M145 200.658C155.566 169.125 179.461 122.419 221.533 90.6546C263.187 59.2056 322.915 42.1972 405.94 69.5441C413.485 205.341 507.826 263.698 592.768 307.545C600.372 311.47 607.891 315.275 615.261 319.004C649.414 336.288 680.391 351.963 701.999 370.576C715.066 381.832 724.512 394.015 729.134 408.076C733.744 422.103 733.64 438.265 727.141 457.659C714.046 496.738 691.632 523.928 662.806 541.946C633.933 559.993 598.478 568.929 559.218 571.197C480.646 575.736 387.437 553.538 302.907 525.213C218.688 496.993 166.244 455.024 141.277 400.825C116.292 346.59 118.563 279.555 145 200.658Z" stroke="#FF5C8D" stroke-width="5"/>
<mask id="mask0" mask-type="alpha" maskUnits="userSpaceOnUse" x="-16" y="62" width="765" height="587">
<path d="M748.132 387.74C747.767 471.454 709.316 649.181 495.817 648.25C378.797 332.501 -16.4495 519.575 -15.5414 311.162C-14.6334 102.749 230.58 61.0893 444.079 62.0195C657.579 62.9496 749.04 179.327 748.132 387.74Z" fill="#FF5C8D"/>
</mask>
<g mask="url(#mask0)">
<rect x="166.726" y="20.8108" width="578" height="770" transform="rotate(0.249627 166.726 20.8108)" fill="url(#pattern0)"/>
</g>
<defs>
<pattern id="pattern0" patternContentUnits="objectBoundingBox" width="1" height="1">
<use xlink:href="#image0" transform="translate(0 -0.167577) scale(0.00266667 0.00200173)"/>
</pattern>
<image id="image0" width="375" height="667" xlink:href="https://res.cloudinary.com/chidiebere/image/upload/v1604495294/porttwoo.png"/>
</defs>
</svg>
